<?xml version="1.0" encoding="UTF-8" standalone="no"?>
<!DOCTYPE svg PUBLIC "-//W3C//DTD SVG 1.1//EN" "http://www.w3.org/Graphics/SVG/1.1/DTD/svg11.dtd">
<!-- Created with Vectornator (http://vectornator.io/) -->
<svg height="100%" stroke-miterlimit="10" style="fill-rule:nonzero;clip-rule:evenodd;stroke-linecap:round;stroke-linejoin:round;" version="1.1" viewBox="0 0 841.995 595.35" width="100%" xml:space="preserve" xmlns="http://www.w3.org/2000/svg" xmlns:vectornator="http://vectornator.io" xmlns:xlink="http://www.w3.org/1999/xlink">
<defs/>
<g id="Layer-1" vectornator:layerName="Layer 1">
<g opacity="1" vectornator:layerName="Group 7">
<path d="M136.677 301.97C135.92 295.008 133.379 289.698 129.059 286.05C124.74 282.4 118.762 280.576 111.128 280.576C103.495 280.576 97.5145 282.4 93.196 286.05C88.8763 289.698 86.3829 295.008 85.7038 301.97L136.677 301.97ZM111.128 271.766C122.035 271.766 130.51 274.806 136.553 280.893C142.595 286.973 145.613 295.424 145.613 306.251L145.613 306.374C145.613 307.633 145.168 308.683 144.295 309.521C143.413 310.36 142.385 310.781 141.207 310.781L85.7038 310.781C86.4603 317.656 88.9787 322.903 93.2579 326.513C97.5383 330.126 103.448 331.924 111.003 331.924C119.144 331.924 125.386 329.826 129.754 325.634L135.92 331.924C129.794 337.792 121.49 340.736 111.003 340.736C100.182 340.736 91.7462 337.709 85.7038 331.667C79.6686 325.634 76.6439 317.196 76.6439 306.374L76.6439 306.251C76.6439 295.424 79.6686 286.973 85.7038 280.893C91.7462 274.806 100.221 271.766 111.128 271.766" fill="#ffffff" fill-rule="nonzero" opacity="1" stroke="none" vectornator:layerName="path 4"/>
<path d="M202.779 273.15L212.469 273.15L183.645 338.093C183.31 338.925 182.789 339.58 182.08 340.039C181.36 340.501 180.543 340.736 179.623 340.736C177.777 340.736 176.435 339.854 175.592 338.093L146.902 273.15L156.468 273.15L179.623 325.507L202.779 273.15Z" fill="#ffffff" fill-rule="nonzero" opacity="1" stroke="none" vectornator:layerName="path 5"/>
<path d="M277.231 301.97C276.475 295.008 273.934 289.698 269.614 286.05C265.294 282.4 259.316 280.576 251.682 280.576C244.05 280.576 238.069 282.4 233.751 286.05C229.431 289.698 226.938 295.008 226.259 301.97L277.231 301.97ZM251.682 271.766C262.59 271.766 271.065 274.806 277.107 280.893C283.15 286.973 286.167 295.424 286.167 306.251L286.167 306.374C286.167 307.633 285.723 308.683 284.85 309.521C283.968 310.36 282.94 310.781 281.762 310.781L226.259 310.781C227.015 317.656 229.534 322.903 233.813 326.513C238.093 330.126 244.003 331.924 251.557 331.924C259.699 331.924 265.941 329.826 270.309 325.634L276.475 331.924C270.349 337.792 262.044 340.736 251.557 340.736C240.737 340.736 232.301 337.709 226.259 331.667C220.223 325.634 217.199 317.196 217.199 306.374L217.199 306.251C217.199 295.424 220.223 286.973 226.259 280.893C232.301 274.806 240.776 271.766 251.682 271.766" fill="#ffffff" fill-rule="nonzero" opacity="1" stroke="none" vectornator:layerName="path 6"/>
<path d="M354.802 340.103L345.991 340.103L345.991 306.375C345.991 298.068 344.152 291.713 340.457 287.309C336.759 282.903 331.397 280.702 324.349 280.702C317.3 280.702 311.929 282.903 308.242 287.309C304.545 291.713 302.706 298.068 302.706 306.375L302.706 340.103L293.897 340.103L293.897 306.375C293.897 295.553 296.554 287.102 301.887 281.016C307.213 274.936 314.697 271.891 324.349 271.891C333.916 271.891 341.376 274.936 346.75 281.016C352.12 287.102 354.802 295.553 354.802 306.375L354.802 340.103Z" fill="#ffffff" fill-rule="nonzero" opacity="1" stroke="none" vectornator:layerName="path 7"/>
<path d="M409.45 281.458L390.95 281.458L390.95 340.104L382.139 340.104L382.139 281.458L363.77 281.458L363.77 272.647L382.139 272.647L382.139 242.066L390.95 242.066L390.95 272.647L409.45 272.647L409.45 281.458Z" fill="#ffffff" fill-rule="nonzero" opacity="1" stroke="none" vectornator:layerName="path 8"/>
<g opacity="1" vectornator:layerName="Group 2">
<path d="M440.015 261.198C444.526 256.797 449.371 252.513 454.548 248.344C459.725 244.175 465.492 239.825 471.849 235.294C478.206 230.763 486.357 225.363 496.301 219.094C501.273 215.96 506.246 212.825 511.218 209.691C511.285 212.608 511.352 215.525 511.42 218.442C511.554 224.275 515.507 227.705 523.278 228.732C527.163 229.245 531.049 229.759 534.934 230.272C530.648 232.616 526.362 234.96 522.076 237.304C513.504 241.991 505.676 246.719 498.594 251.487C491.511 256.255 485.075 260.977 479.285 265.653C473.494 270.329 468.086 275.164 463.06 280.157C458.034 285.15 455.25 287.759 454.71 287.982C454.169 288.206 451.532 288.949 446.798 290.212C442.065 291.474 438.221 292.21 435.268 292.419C432.315 292.628 429.662 292.491 427.309 292.009C424.956 291.526 423.655 290.83 423.405 289.92C423.155 289.01 423.186 287.477 423.497 285.322C423.808 283.167 424.617 280.837 425.924 278.333C427.231 275.829 428.778 273.448 430.566 271.188C432.354 268.928 435.503 265.598 440.015 261.198Z" fill="#fe0002" fill-rule="nonzero" opacity="1" stroke="none" vectornator:layerName="Curve 1"/>
<path d="M434.91 295.227C438.43 295.163 444.149 294.063 452.067 291.926C459.985 289.789 465.15 288.727 467.563 288.742C469.975 288.757 471.435 289.071 471.942 289.684C472.45 290.298 472.676 291.534 472.622 293.393C472.568 295.251 472.017 297.284 470.967 299.492C469.918 301.699 467.5 304.885 463.713 309.048C459.927 313.212 456.666 314.973 453.931 314.332C451.196 313.691 446.377 310.461 439.472 304.643C436.02 301.733 432.568 298.824 429.116 295.915C429.202 295.816 429.287 295.718 429.373 295.619C429.545 295.421 431.39 295.29 434.91 295.227Z" fill="#a10203" fill-rule="nonzero" opacity="1" stroke="none" vectornator:layerName="Curve 2"/>
<path d="M402.942 360.512C411.732 354.975 420.232 349.272 428.442 343.404C436.653 337.536 442.862 332.877 447.07 329.425C451.277 325.974 456.359 321.116 462.315 314.851C468.272 308.587 471.903 304.202 473.21 301.698C474.517 299.194 475.326 296.865 475.637 294.71C475.793 293.632 475.948 292.554 476.104 291.477C478.643 293.94 481.183 296.404 483.722 298.867C488.801 303.795 491.564 306.799 492.012 307.88C492.459 308.962 492.729 310.148 492.82 311.44C492.912 312.732 492.776 314.087 492.412 315.504C492.049 316.921 491.079 318.937 489.501 321.553C487.924 324.169 486.272 326.373 484.544 328.164C482.815 329.956 469.705 339.973 445.212 358.216C420.719 376.459 408.288 385.594 407.918 385.62C407.734 385.633 407.549 385.646 407.365 385.659C407.406 383.616 407.446 381.572 407.487 379.529C407.569 375.442 404.097 372.256 398.851 371.514C393.605 370.773 390.649 370.286 389.983 370.055C389.65 369.94 389.317 369.824 388.985 369.709C389.113 369.56 389.242 369.412 389.37 369.264C389.628 368.967 394.151 366.05 402.942 360.512Z" fill="#fe0002" fill-rule="nonzero" opacity="1" stroke="none" vectornator:layerName="Curve 3"/>
</g>
<path d="M616.381 307.134L590.529 307.134C584.871 307.134 580.359 307.291 576.925 307.588C573.502 307.869 570.903 308.484 569.069 309.411C567.245 310.365 566.047 311.678 565.51 313.465C564.979 315.231 564.671 317.633 564.671 320.571C564.671 322.494 565.427 324.182 566.969 325.526C568.48 326.865 570.48 327.917 572.903 328.824C575.388 329.668 578.124 330.278 581.224 330.679C584.324 331.017 587.418 331.226 590.529 331.226C593.681 331.226 596.776 331.017 599.881 330.679C602.955 330.278 605.711 329.668 608.144 328.824C610.593 327.917 612.625 326.865 614.104 325.526C615.647 324.182 616.381 322.494 616.381 320.571L616.381 307.134ZM590.529 270.612C601.538 270.612 610.098 273.722 616.142 279.797C622.217 285.95 625.29 294.469 625.29 305.332L625.29 320.571C625.29 321.978 624.905 323.791 624.243 326.068C623.576 328.298 622.055 330.455 619.612 332.534C617.21 334.602 613.745 336.368 609.181 337.858C604.596 339.348 598.391 340.104 590.529 340.104C582.672 340.104 576.477 339.348 571.924 337.858C567.38 336.368 563.864 334.602 561.462 332.534C559.065 330.455 557.528 328.298 556.825 326.068C556.168 323.791 555.835 321.978 555.835 320.571C555.835 315.387 556.611 311.36 558.237 308.406C559.847 305.446 561.988 303.242 564.671 301.773C567.412 300.268 570.595 299.309 574.279 298.856C577.915 298.439 581.838 298.256 586.106 298.256L615.756 298.256C614.61 292.208 611.869 287.576 607.654 284.33C603.45 281.084 597.74 279.5 590.529 279.5C583.266 279.5 577.415 281.24 572.903 284.648L567.453 277.75C573.502 273.024 581.198 270.612 590.529 270.612" fill="#ffffff" fill-rule="nonzero" opacity="1" stroke="none" vectornator:layerName="path 3"/>
<path d="M697.019 331.226C693.95 334.201 690.308 336.368 686.057 337.858C681.795 339.348 676.997 340.104 671.781 340.104C660.783 340.104 652.254 337.03 646.179 330.991C640.104 324.88 637.087 316.335 637.087 305.332C637.087 294.469 640.104 285.95 646.179 279.797C652.254 273.722 660.783 270.612 671.781 270.612C680.79 270.612 688.323 272.816 694.205 277.333L688.917 284.445C684.562 281.12 678.862 279.5 671.781 279.5C663.351 279.5 656.896 281.709 652.514 286.159C648.133 290.572 645.939 296.996 645.939 305.332C645.939 313.819 648.133 320.253 652.514 324.604C656.896 329.043 663.351 331.226 671.781 331.226C679.982 331.226 686.307 329.043 690.772 324.76L697.019 331.226Z" fill="#ffffff" fill-rule="nonzero" opacity="1" stroke="none" vectornator:layerName="path 2"/>
<path d="M735.945 303.717L765.236 340.104L753.931 340.104L729.87 310.182L719.07 321.587L719.07 340.104L710.223 340.104L710.223 241.326L719.07 241.326L719.07 308.666L753.206 272.659L765.351 272.659L735.945 303.717Z" fill="#ffffff" fill-rule="nonzero" opacity="1" stroke="none" vectornator:layerName="path"/>
<path d="M519.778 282.902C521.899 278.406 530.286 272.692 543.421 272.692C556.557 272.692 552.83 272.671 553.31 272.671L553.31 281.45L542.68 281.323C535.64 281.323 531.128 282.389 525.498 288.56C519.868 294.73 520.16 306.006 520.16 306.006L520.16 340.104L511.127 340.104L511.127 296.171L511.127 273.18L519.778 273.18L519.778 282.902Z" fill="#ffffff" fill-rule="nonzero" opacity="1" stroke="none"/>
</g>
</g>
</svg>
